<svg width="20" height="20" viewBox="0 0 20 20" fill="none" xmlns="http://www.w3.org/2000/svg">
<path d="M1.25 6.875C1.25 6.0462 1.57924 5.25134 2.16529 4.66529C2.75134 4.07924 3.5462 3.75 4.375 3.75H9.375C10.2038 3.75 10.9987 4.07924 11.5847 4.66529C12.1708 5.25134 12.5 6.0462 12.5 6.875V13.125C12.5 13.9538 12.1708 14.7487 11.5847 15.3347C10.9987 15.9208 10.2038 16.25 9.375 16.25H4.375C3.5462 16.25 2.75134 15.9208 2.16529 15.3347C1.57924 14.7487 1.25 13.9538 1.25 13.125V6.875ZM16.295 14.7225L13.625 12.88C13.6417 12.7633 13.65 12.6454 13.65 12.5262V7.47625C13.65 7.35625 13.6417 7.23833 13.625 7.1225L16.295 5.28C16.5294 5.1182 16.8037 5.02357 17.088 5.00634C17.3723 4.98911 17.656 5.04995 17.9083 5.18226C18.1605 5.31457 18.3718 5.51333 18.5193 5.75704C18.6668 6.00075 18.7448 6.28014 18.745 6.565V13.4375C18.7448 13.7224 18.6668 14.0018 18.5193 14.2455C18.3718 14.4892 18.1605 14.6879 17.9083 14.8202C17.656 14.9526 17.3723 15.0134 17.088 14.9962C16.8037 14.9789 16.5294 14.8843 16.295 14.7225Z" fill="#2E6CF0"/>
</svg>
